<?xml version="1.0" standalone="no"?>
<!DOCTYPE svg PUBLIC "-//W3C//DTD SVG 20010904//EN" "http://www.w3.org/TR/2001/REC-SVG-20010904/DTD/svg10.dtd">
<svg version="1.0" xmlns="http://www.w3.org/2000/svg" width="300.000000pt" height="300.000000pt"
    viewBox="0 0 300.000000 300.000000" preserveAspectRatio="xMidYMid meet">
    <metadata>
        Created by potrace 1.10, written by Peter Selinger 2001-2011
    </metadata>
    <g transform="translate(0.000000,300.000000) scale(0.100000,-0.100000)" fill="#000000" stroke="none">
        <path d="M1518 2637 l42 -47 -1 -78 c-1 -43 1 -83 4 -90 5 -7 -15 -10 -67 -10
-88 1 -142 -20 -152 -57 -7 -29 -46 -34 -70 -10 -21 20 -92 19 -140 -2 -22 -9
-45 -18 -52 -19 -19 -4 -42 -25 -42 -39 0 -17 -30 -28 -31 -12 -1 7 0 36 1 65
2 43 -3 59 -24 87 -14 18 -27 40 -28 47 0 7 -4 -9 -7 -37 -7 -57 5 -181 19
-207 14 -25 13 -28 -10 -28 -16 0 -20 -7 -20 -32 0 -18 5 -40 10 -48 7 -11 10
-7 10 17 0 36 9 46 30 33 12 -7 12 -12 2 -22 -19 -19 -15 -59 7 -65 23 -6 38
-78 20 -99 -9 -11 -8 -14 5 -14 20 0 20 1 -5 -57 -38 -87 -77 -211 -84 -267
l-7 -55 -102 -75 c-55 -42 -150 -103 -210 -138 -129 -74 -135 -83 -147 -233
-4 -55 -16 -147 -27 -205 -11 -58 -28 -186 -37 -285 -16 -178 -35 -618 -27
-643 3 -9 105 -12 466 -12 l461 0 2 81 c1 44 -2 92 -8 106 -5 14 -10 68 -10
119 -1 52 -5 97 -10 100 -5 3 -9 32 -9 65 0 76 -25 301 -50 444 -33 189 -71
388 -76 397 -3 4 4 25 16 47 11 22 20 48 20 58 0 15 2 16 10 3 14 -22 12 2 -5
50 -14 39 -14 42 2 35 14 -5 13 -1 -4 17 -27 29 -60 101 -66 148 -3 19 -8 55
-13 79 -8 52 10 50 21 -2 10 -45 35 -77 98 -126 l54 -41 -5 -50 c-4 -44 -2
-52 26 -79 26 -26 35 -30 64 -25 49 10 54 20 6 16 -34 -4 -44 0 -59 19 -20 26
-26 89 -8 89 12 0 61 -47 75 -73 11 -20 44 -23 123 -10 l54 8 65 125 c61 116
66 130 67 190 0 36 -3 76 -7 90 -6 19 -4 18 7 -5 19 -39 19 -110 0 -171 -8
-27 -15 -65 -15 -85 0 -20 -6 -42 -14 -48 -19 -16 -27 -49 -13 -58 5 -3 21 7
34 23 16 20 23 24 23 13 0 -22 23 -40 63 -48 19 -4 36 -15 42 -29 5 -12 15
-22 22 -22 9 0 13 -17 13 -52 0 -40 3 -49 11 -38 8 12 9 9 5 -12 -30 -139 -46
-241 -46 -301 0 -40 -5 -124 -10 -187 -5 -63 -10 -187 -10 -275 -2 -129 -6
-181 -25 -265 -20 -86 -65 -307 -65 -318 0 -1 223 -1 496 0 l496 3 24 75 c13
41 24 85 24 96 0 12 6 37 14 55 8 19 20 69 27 111 12 71 11 79 -5 97 -28 31
-45 103 -56 244 -24 290 -73 482 -192 742 -31 66 -61 136 -67 155 -21 63 -34
71 -163 106 -68 18 -172 47 -233 63 -189 51 -183 48 -246 131 -31 41 -77 94
-103 118 -44 41 -58 74 -36 87 7 4 7 11 2 18 -14 19 -22 76 -12 82 17 11 11
43 -12 65 -16 14 -19 23 -11 31 8 8 15 4 27 -12 10 -15 16 -18 16 -9 0 32 -12
56 -32 65 -14 7 -22 21 -25 45 -4 47 -40 175 -57 208 -8 15 -34 45 -57 67
l-43 40 42 -48z m-368 -327 c0 -5 -4 -10 -9 -10 -5 0 -18 -3 -28 -6 -16 -5
-16 -4 1 10 23 18 36 20 36 6z m239 -90 c28 -39 51 -74 51 -79 0 -8 -73 -22
-114 -22 -11 0 -28 -5 -39 -10 -36 -20 -39 4 -10 94 20 62 33 87 44 87 9 0 40
-32 68 -70z m159 35 c-20 -45 -117 -57 -149 -19 -11 13 -6 14 37 9 38 -5 57
-2 84 13 19 11 36 20 37 21 2 0 -2 -10 -9 -24z m61 -4 c6 -10 13 -37 17 -60 6
-40 6 -41 -31 -57 -25 -10 -47 -13 -69 -7 -17 4 -38 8 -46 8 -8 1 -13 7 -11
15 2 8 4 23 5 33 0 9 8 17 18 17 10 0 35 16 56 35 43 40 48 41 61 16z m-346
-23 c-14 -57 -75 -87 -133 -67 -25 9 -50 35 -50 52 0 3 17 -1 38 -9 56 -20 79
-17 114 16 18 16 34 30 35 30 0 0 -1 -10 -4 -22z m-116 6 c-3 -3 -12 -4 -19
-1 -8 3 -5 6 6 6 11 1 17 -2 13 -5z m-104 -25 c12 -7 37 -25 56 -42 30 -25 40
-29 78 -24 31 3 41 1 35 -7 -14 -16 -11 -45 4 -39 7 2 41 -10 75 -27 37 -18
72 -29 84 -26 12 3 34 2 50 -3 l30 -8 -40 -11 c-39 -11 -151 -32 -167 -32 -4
0 -8 7 -8 15 0 8 -4 15 -10 15 -5 0 -10 11 -10 25 0 29 -19 32 -55 9 -18 -12
-37 -14 -79 -9 -61 8 -59 4 -72 118 -7 61 -5 63 29 46z m437 -114 c0 -15 -19
-24 -38 -17 -10 3 -9 8 4 23 18 20 34 17 34 -6z m-21 -122 c8 -14 13 -15 34
-6 38 17 47 -1 41 -78 -7 -82 -21 -103 -89 -128 -89 -33 -153 -27 -176 17 -8
15 -16 29 -19 32 -3 3 -16 26 -29 53 -24 46 -24 48 -5 61 11 9 30 12 47 9 20
-4 27 -2 27 10 0 15 56 41 70 32 5 -3 19 -1 32 4 35 15 56 13 67 -6z m-269
-45 c0 -5 -7 -3 -15 6 -8 8 -15 18 -15 22 0 3 7 1 15 -6 8 -7 15 -17 15 -22z
m-152 -950 c73 -94 92 -129 122 -222 32 -97 19 -91 -19 10 -25 65 -54 113
-117 197 -46 61 -84 118 -84 127 1 11 5 9 18 -8 9 -12 45 -59 80 -104z m149
-330 c-3 -8 -6 -5 -6 6 -1 11 2 17 5 13 3 -3 4 -12 1 -19z m1163 -273 c10 -13
10 -19 -5 -35 -9 -10 -14 -24 -10 -31 4 -6 3 -34 -3 -63 -6 -28 -14 -69 -18
-91 -5 -32 -8 -36 -15 -22 -9 15 4 205 17 245 5 16 19 15 34 -3z" />
        <path d="M1256 2025 c-7 -19 14 -19 40 0 18 14 18 14 -7 15 -15 0 -29 -7 -33
-15z" />
        <path d="M1364 1928 c-4 -7 -3 -8 4 -4 12 7 16 16 8 16 -3 0 -8 -5 -12 -12z" />
        <path d="M1385 1888 c-27 -6 -60 -15 -73 -21 -21 -10 -21 -11 -5 -30 15 -16
26 -18 68 -12 27 3 60 7 73 8 12 1 22 6 22 10 0 5 5 5 10 2 12 -7 40 12 40 27
0 6 -7 8 -15 4 -8 -3 -14 0 -12 6 3 15 -47 18 -108 6z" />
        <path d="M1635 1590 c-3 -5 1 -10 10 -10 9 0 13 5 10 10 -3 6 -8 10 -10 10 -2
0 -7 -4 -10 -10z" />
        <path d="M1594 1479 c-3 -6 -1 -16 5 -22 8 -8 11 -5 11 11 0 24 -5 28 -16 11z" />
        <path d="M1300 1404 c0 -8 5 -12 10 -9 6 4 8 11 5 16 -9 14 -15 11 -15 -7z" />
    </g>
</svg>
